<svg width="50" height="50" viewBox="0 0 50 50" fill="none" xmlns="http://www.w3.org/2000/svg">
<path d="M25 46.875C37.0812 46.875 46.875 37.0812 46.875 25C46.875 12.9188 37.0812 3.125 25 3.125C12.9188 3.125 3.125 12.9188 3.125 25C3.125 37.0812 12.9188 46.875 25 46.875Z" fill="url(#paint0_linear_182_71)"/>
<path d="M28.8231 13.5219C29.2959 12.6967 29.0133 11.6426 28.1919 11.1676C27.3705 10.6926 26.3212 10.9766 25.8484 11.8018L25.0239 13.2413L24.1992 11.8018C23.7264 10.9766 22.6772 10.6926 21.8558 11.1676C21.0344 11.6426 20.7517 12.6967 21.2245 13.5219L23.0438 16.6975L17.2894 26.742H12.6536C11.7058 26.742 10.9375 27.5139 10.9375 28.4661C10.9375 29.4183 11.7058 30.1902 12.6536 30.1902H28.8006C28.9422 29.8164 29.0912 29.1752 28.9327 28.5858C28.6944 27.6999 27.8125 26.742 26.3347 26.742H21.2495L28.8231 13.5219Z" fill="white"/>
<path d="M18.1818 32.0967C17.889 31.77 17.2331 31.248 16.6577 31.0762C15.7807 30.8142 15.1158 30.9786 14.7803 31.1217L13.502 33.3531C13.0292 34.1783 13.3119 35.2323 14.1333 35.7073C14.9547 36.1823 16.0038 35.8984 16.4767 35.0731L18.1818 32.0967Z" fill="white"/>
<path d="M34.7337 30.1901H37.3466C38.2944 30.1901 39.0627 29.4183 39.0627 28.4661C39.0627 27.5139 38.2944 26.742 37.3466 26.742H32.7584L27.59 17.7205C27.2061 18.087 26.47 19.0234 26.3587 20.0851C26.2158 21.45 26.4302 22.5994 27.0737 23.7248C29.2373 27.5087 31.4044 31.2909 33.5711 35.0731C34.0439 35.8984 35.093 36.1823 35.9145 35.7073C36.7359 35.2323 37.0186 34.1783 36.5458 33.3531L34.7337 30.1901Z" fill="white"/>
<defs>
<linearGradient id="paint0_linear_182_71" x1="25" y1="3.125" x2="25" y2="46.875" gradientUnits="userSpaceOnUse">
<stop stop-color="#2AC9FA"/>
<stop offset="1" stop-color="#1F65EB"/>
</linearGradient>
</defs>
</svg>
