<svg viewBox="0 0 90 90" xmlns="http://www.w3.org/2000/svg" xmlns:xlink="http://www.w3.org/1999/xlink" width="90.000000" height="90.000000" fill="none" clip-path="url(#clipPath_0)" customFrame="url(#clipPath_0)">
	<defs>
		<clipPath id="clipPath_0">
			<rect width="90.000000" height="90.000000" x="0.000000" y="0.000000" rx="30.000000" fill="rgb(255,255,255)" />
		</clipPath>
	</defs>
	<rect id="avatar-svgrepo-com 1" width="90.000000" height="90.000000" x="0.000000" y="0.000000" rx="30.000000" fill="rgb(255,255,255)" fill-opacity="0" />
	<path id="Vector" d="M55.26 46.485C62.8467 48.7031 69.5103 53.32 74.2523 59.6439C78.9942 65.9679 81.5591 73.6582 81.5625 81.5625L8.4375 81.5625C8.43912 73.6577 11.0033 65.9665 15.7455 59.6423C20.4877 53.318 27.1523 48.7014 34.74 46.485L45 61.875L55.26 46.485ZM63.2812 26.7188C63.2812 31.5672 61.3552 36.2171 57.9268 39.6455C54.4984 43.0739 49.8485 45 45 45C40.1515 45 35.5016 43.0739 32.0732 39.6455C28.6448 36.2171 26.7188 31.5672 26.7188 26.7188C26.7188 21.8703 28.6448 17.2204 32.0732 13.792C35.5016 10.3636 40.1515 8.4375 45 8.4375C49.8485 8.4375 54.4984 10.3636 57.9268 13.792C61.3552 17.2204 63.2812 21.8703 63.2812 26.7188Z" fill="rgb(0,0,0)" fill-rule="nonzero" />
</svg>
