<svg viewBox="0 0 22.3385 17" xmlns="http://www.w3.org/2000/svg" xmlns:xlink="http://www.w3.org/1999/xlink" width="22.338501" height="17.000000" fill="none" customFrame="#000000">
	<rect id="Frame" width="22.338512" height="17.000000" x="0.000000" y="0.000000" fill="#2094F3" fill-opacity="0" />
	<g id="Group">
		<path id="Vector" d="M19.6115 0L2.73165 0C1.22485 0 0 1.22485 0 2.73165L0 14.2684C0 15.7752 1.22485 17 2.73165 17L19.6069 17C21.1136 17 22.3385 15.7752 22.3385 14.2684L22.3385 2.73627C22.3431 1.22947 21.1183 0 19.6115 0ZM21.0952 14.2684C21.0952 15.0865 20.4296 15.752 19.6115 15.752L2.73165 15.752C1.91354 15.752 1.24796 15.0865 1.24796 14.2684L1.24796 2.73627C1.24796 1.91816 1.91354 1.25258 2.73165 1.25258L19.6069 1.25258C20.425 1.25258 21.0905 1.91816 21.0905 2.73627L21.0905 14.2684L21.0952 14.2684Z" fill="#2094F3" fill-rule="nonzero" />
		<path id="Vector" d="M14.0881 8.35673L19.5514 3.45733C19.8056 3.22623 19.8287 2.83335 19.5976 2.57451C19.3665 2.3203 18.9736 2.29719 18.7148 2.52829L11.1808 9.29039L9.71097 7.97772C9.70635 7.9731 9.70173 7.96848 9.70173 7.96386C9.66937 7.9315 9.63702 7.90377 9.60004 7.87604L3.61907 2.52367C3.36024 2.29257 2.96736 2.31568 2.73626 2.57451C2.50515 2.83335 2.52826 3.22623 2.7871 3.45733L8.3151 8.39833L2.81021 13.552C2.56062 13.7877 2.54675 14.1806 2.78248 14.4348C2.90727 14.5642 3.07367 14.6335 3.24006 14.6335C3.39259 14.6335 3.54512 14.5781 3.66529 14.4671L9.25338 9.23955L10.7694 10.5938C10.8896 10.7001 11.0375 10.751 11.1854 10.751C11.3333 10.751 11.4858 10.6955 11.6014 10.5892L13.159 9.19333L18.7148 14.4717C18.835 14.5873 18.9921 14.6428 19.1446 14.6428C19.311 14.6428 19.4728 14.5781 19.5976 14.4486C19.8333 14.199 19.8241 13.8015 19.5745 13.5658L14.0881 8.35673Z" fill="#2094F3" fill-rule="nonzero" />
	</g>
</svg>
