<svg width="50" height="50" viewBox="0 0 50 50" fill="none" xmlns="http://www.w3.org/2000/svg">
<path d="M36.0973 32.6414C42.0205 29.389 46.511 26.9107 46.8981 26.7182C48.1362 26.0596 49.4148 24.3169 46.8981 22.9632C46.0855 22.5377 41.7105 20.1364 36.0973 17.0401L28.3159 24.8985L36.0973 32.6414Z" fill="#FFD900"/>
<path d="M28.3159 24.8985L3.53906 49.8698C4.1206 49.9468 4.77723 49.7928 5.55133 49.3672C7.17654 48.4776 24.405 39.069 36.0973 32.6433L28.3159 24.8985Z" fill="#F43249"/>
<path d="M28.3163 24.8985L36.0977 17.0786C36.0977 17.0786 7.29443 1.3598 5.55175 0.43166C4.89512 0.0426861 4.15954 -0.0728506 3.50098 0.0426861L28.3163 24.8985Z" fill="#00EE76"/>
<path d="M28.3161 24.8985L3.50079 0.0426788C2.4937 0.275678 1.64258 1.16531 1.64258 2.98501C1.64258 5.88883 1.64258 44.5262 1.64258 46.9275C1.64258 48.5931 2.30114 49.7928 3.53931 49.9083L28.3161 24.8985Z" fill="#00D3FF"/>
</svg>
