<svg width="45" height="45" viewBox="0 0 45 45" fill="none" xmlns="http://www.w3.org/2000/svg">
<g clip-path="url(#clip0_160_219)">
<mask id="mask0_160_219" style="mask-type:luminance" maskUnits="userSpaceOnUse" x="0" y="0" width="45" height="45">
<path d="M45 0.298401H0V44.87H45V0.298401Z" fill="white"/>
</mask>
<g mask="url(#mask0_160_219)">
<path d="M35.6663 4.50785C35.6924 4.53387 35.6924 4.53387 35.7185 4.55991C35.7185 4.53387 35.6924 4.53387 35.6663 4.50785Z" fill="#FFFAF7"/>
<path d="M35.1709 4.17257C35.1187 4.14654 35.0927 4.12051 35.0405 4.09448C35.0927 4.12051 35.1448 4.14654 35.1709 4.17257Z" fill="#FFFAF7"/>
<path d="M26.2022 0.608668C26.1239 0.582638 26.0196 0.582638 25.9414 0.556609C25.8893 0.556609 25.8632 0.556609 25.811 0.530579C25.8632 0.530579 25.8893 0.530579 25.9414 0.556609C26.0196 0.556609 26.1239 0.582638 26.2022 0.608668Z" fill="#FFFAF7"/>
<path d="M32.0161 2.39014C31.7814 2.28685 31.5728 2.18356 31.3643 2.10608C31.5989 2.18356 31.8075 2.28685 32.0161 2.39014Z" fill="#FFFAF7"/>
<path d="M29.3309 1.3309C29.2788 1.30519 29.2266 1.30519 29.1746 1.27949C29.2005 1.30519 29.2527 1.3309 29.3309 1.3309Z" fill="#FFFAF7"/>
<path d="M31.208 2.02863C31.2862 2.05466 31.3384 2.08069 31.3644 2.10672C31.3123 2.08069 31.2862 2.05466 31.208 2.02863Z" fill="#FFFAF7"/>
<path d="M34.0498 3.44873L34.154 3.52584C34.2322 3.57725 34.3104 3.60294 34.3626 3.65435C34.2843 3.60294 34.2322 3.57725 34.154 3.52584L34.0498 3.44873C34.0237 3.44873 34.0237 3.42303 33.9976 3.42303C34.0237 3.44873 34.0237 3.44873 34.0498 3.44873Z" fill="#FFFAF7"/>
<path d="M32.2509 2.51865C32.3291 2.54435 32.4073 2.59576 32.4595 2.62145C32.3812 2.59576 32.303 2.54435 32.2509 2.51865Z" fill="#FFFAF7"/>
<path d="M30.9475 1.92523C30.9736 1.92523 30.9736 1.92523 30.9995 1.95105C30.9736 1.95105 30.9736 1.95105 30.9475 1.92523Z" fill="#FFFAF7"/>
<path d="M0.234375 19.3562C0.234375 19.3304 0.234375 19.2788 0.259868 19.2529C0.234375 19.2788 0.234375 19.3046 0.234375 19.3562Z" fill="#FFFAF7"/>
<path d="M0.130371 20.1058C0.130371 20.0797 0.130371 20.0538 0.130371 20.0277C0.155864 20.0538 0.130371 20.0797 0.130371 20.1058Z" fill="#FFFAF7"/>
<path d="M0.0513713 20.9574V20.9315C0.0513713 20.9315 0.0513713 20.9315 0.0513713 20.9574C0.0513713 21.0348 0.0258789 21.1381 0.0258789 21.2156C0.0513713 21.1123 0.0513713 21.0348 0.0513713 20.9574Z" fill="#FFFAF7"/>
<path d="M11.7583 30.073C11.7583 30.099 11.7838 30.125 11.7838 30.125C11.7583 30.125 11.7583 30.099 11.7583 30.073Z" fill="#FFFAF7"/>
<path d="M23.3345 0.324097C23.8298 0.349798 24.3512 0.3755 24.8466 0.426904C24.3512 0.3755 23.8559 0.324097 23.3345 0.324097Z" fill="#FFFAF7"/>
<path d="M27.2192 0.789062C27.3756 0.814764 27.506 0.840466 27.6364 0.89187C27.506 0.840466 27.3496 0.814764 27.2192 0.789062Z" fill="#FFFAF7"/>
<path d="M37.1524 5.66887C37.1002 5.64316 37.0741 5.59176 37.022 5.56606C37.0741 5.59176 37.1263 5.64316 37.1524 5.66887Z" fill="#FFFAF7"/>
<path d="M15.1475 10.0081C17.0767 7.96803 19.4232 6.36697 22.0825 5.35984C22.8908 5.04996 23.699 4.79172 24.5333 4.61096C23.699 4.81755 22.8908 5.04996 22.0825 5.35984C19.3971 6.39279 17.0507 7.96803 15.1475 10.0081Z" fill="#FFFAF7"/>
<path d="M19.1365 38.3882C16.9203 37.0712 14.9911 35.2893 13.4788 33.146C12.9313 32.3712 12.4621 31.5707 12.0449 30.7185C12.4621 31.5449 12.9313 32.3712 13.4788 33.146C14.9911 35.2635 16.9203 37.0453 19.1365 38.3882Z" fill="#FFFAF7"/>
<path d="M37.6476 6.10835C37.6997 6.15975 37.7258 6.18546 37.7779 6.21116C37.7519 6.18546 37.6997 6.15975 37.6476 6.10835Z" fill="#FFFAF7"/>
<path d="M38.2734 6.67601C38.2473 6.6503 38.2212 6.62461 38.1951 6.5989C38.1951 6.62461 38.2473 6.6503 38.2734 6.67601Z" fill="#FFFAF7"/>
<path d="M37.9344 6.36648C37.9084 6.34078 37.8562 6.31508 37.8301 6.26367C37.8562 6.28938 37.8823 6.34078 37.9344 6.36648Z" fill="#FFFAF7"/>
<path d="M0.260719 19.1755V19.2271C0.260719 19.2529 0.260719 19.3046 0.234647 19.3304V19.3562C0.234647 19.3821 0.234647 19.4079 0.234647 19.4337V19.4854V19.5112V19.537V19.5628C0.234647 19.6403 0.208575 19.7178 0.208575 19.7953C0.208575 19.8727 0.182503 19.9244 0.182503 20.0019C0.182503 20.0277 0.182503 20.0534 0.182503 20.0793C0.182503 20.1567 0.156431 20.2343 0.156431 20.3117C0.156431 20.3633 0.156431 20.4409 0.130359 20.4925V20.5442C0.130359 20.5699 0.130359 20.5958 0.130359 20.6216C0.130359 20.6475 0.130359 20.6732 0.130359 20.6991C0.130359 20.7249 0.130359 20.7249 0.130359 20.7508C0.130359 20.7765 0.130359 20.7765 0.130359 20.8024C0.130359 20.8282 0.130359 20.8541 0.130359 20.8798V20.9057C0.130359 20.9831 0.104287 21.0864 0.104287 21.1639C0.104287 21.2155 0.104287 21.2414 0.104287 21.293C0.104287 21.3447 0.104287 21.3705 0.104287 21.4221C0.104287 21.4221 0.104287 21.4221 0.104287 21.448V21.4738V21.4996V21.5254C0.104287 21.5771 0.104287 21.6287 0.104287 21.6804C0.104287 21.7062 0.104287 21.732 0.104287 21.732C0.104287 21.8353 0.104287 21.9127 0.104287 21.9903C0.104287 22.016 0.104287 22.016 0.104287 22.0419V22.0677C0.104287 22.1452 0.104287 22.2226 0.104287 22.2743V22.3259V22.3518V22.4292C0 22.5068 0 22.5068 0 22.5325C0 22.5584 0 22.5584 0 22.5842C0 22.6101 0 22.6101 0 22.6358C0 22.6617 0 22.6875 0 22.6875V22.765V22.8167C0.0521436 27.0517 1.77289 31.0285 4.82329 33.9982C7.87369 36.9679 11.9149 38.6206 16.2167 38.6206C16.8946 38.6206 17.5724 38.569 18.2503 38.4916C18.5632 38.4657 18.8499 38.414 19.1628 38.3624C16.9467 37.0455 15.0174 35.2636 13.5052 33.1203C12.9577 32.3455 12.4884 31.545 12.0712 30.6928C11.967 30.5121 11.8888 30.3055 11.8106 30.1247C11.8106 30.0989 11.7845 30.073 11.7845 30.073C10.7416 27.7231 10.1941 25.1924 10.1941 22.5842C10.1941 18.7882 11.3412 15.147 13.5313 12.0223C14.0266 11.2993 14.5742 10.6279 15.1738 10.0081C17.1031 7.96803 19.4496 6.36696 22.1089 5.35984C22.9171 5.04996 23.7253 4.79172 24.5596 4.61095C25.9415 4.27525 27.3754 4.12031 28.8354 4.12031C32.2248 4.12031 35.4837 5.02413 38.3256 6.67684C38.2995 6.65101 38.2735 6.6252 38.2474 6.59937C38.2213 6.57355 38.1692 6.5219 38.1431 6.49607L38.117 6.47025C38.0909 6.44442 38.0388 6.41861 38.0127 6.36696C37.9866 6.34113 37.9346 6.31531 37.9085 6.26366C37.9085 6.26366 37.9084 6.26366 37.8823 6.23785C37.8303 6.21202 37.8042 6.16037 37.7521 6.13455L37.6999 6.0829L37.6738 6.05708C37.6217 6.00543 37.5695 5.95378 37.4913 5.90213C37.4131 5.85049 37.3609 5.79884 37.3088 5.74719C37.2827 5.72137 37.2566 5.72137 37.2566 5.69554C37.2045 5.66973 37.1784 5.61808 37.1264 5.59225L37.048 5.51478L36.996 5.46314L36.9699 5.43731L36.9438 5.41149C36.8917 5.35984 36.8395 5.33401 36.7874 5.28237C36.7613 5.25655 36.7092 5.23072 36.6831 5.17907C36.5527 5.07578 36.4223 4.97248 36.318 4.89502C36.292 4.86919 36.2398 4.84337 36.2137 4.81754L36.1617 4.79172L36.1356 4.76589C36.1356 4.76589 36.1356 4.76589 36.1095 4.76589L36.0313 4.71424L36.0052 4.68843L35.9009 4.61095L35.8749 4.58513C35.8488 4.5593 35.8488 4.5593 35.8227 4.53348L35.7966 4.50766C35.7706 4.48184 35.7184 4.45601 35.6923 4.43019L35.6663 4.40436C35.562 4.3269 35.4837 4.27525 35.3795 4.19777C35.3274 4.17195 35.3013 4.14612 35.2492 4.12031L35.2231 4.09448C35.1709 4.04283 35.0927 4.01701 35.0406 3.96536C35.0145 3.96536 35.0145 3.93954 34.9884 3.93954C34.9363 3.91372 34.8841 3.88789 34.858 3.86207C34.7798 3.81042 34.7277 3.78459 34.6494 3.73295C34.5713 3.6813 34.5192 3.65548 34.4409 3.60383L34.3366 3.52636C34.3106 3.52636 34.3106 3.50054 34.2845 3.50054C34.2584 3.50054 34.2323 3.47471 34.2063 3.47471C34.1802 3.47471 34.1802 3.44889 34.1541 3.44889C34.102 3.42306 34.0498 3.39724 33.9977 3.37141L33.9716 3.3456C33.9455 3.3456 33.9455 3.31977 33.9194 3.31977C33.8673 3.29395 33.8151 3.26812 33.7892 3.2423C33.7892 3.2423 33.7892 3.2423 33.7631 3.2423C33.4502 3.06153 33.1112 2.90659 32.7984 2.72583H32.7723C32.6941 2.7 32.6159 2.64835 32.5637 2.62253L32.0683 2.41594C32.0683 2.41594 32.0684 2.41594 32.0423 2.41594C31.8077 2.31265 31.5991 2.20936 31.3905 2.13188C31.3383 2.10606 31.2862 2.08023 31.234 2.08023H31.208H31.182L31.1037 2.05441C31.0777 2.05441 31.0516 2.02858 30.9994 2.02858C30.9734 2.02858 30.9734 2.02858 30.9473 2.00277C30.7387 1.92529 30.5562 1.84782 30.3997 1.79618L30.2955 1.77035H30.2694L30.1651 1.74453C29.8783 1.64124 29.6177 1.53794 29.3048 1.46048C29.3048 1.46048 29.3048 1.46048 29.2787 1.46048C29.2265 1.43465 29.1744 1.43465 29.1222 1.40882C29.0701 1.383 29.0179 1.383 28.9658 1.35717C28.9397 1.35717 28.8876 1.33135 28.8615 1.33135C28.7311 1.30553 28.6269 1.25388 28.4965 1.22806C28.4705 1.22806 28.4705 1.22806 28.4444 1.22806C28.4444 1.07312 28.4183 1.07312 28.3922 1.07312H28.3662H28.3401C28.1054 1.02147 27.8707 0.943998 27.6101 0.89235C27.4797 0.866527 27.3233 0.840703 27.1929 0.789056C26.9583 0.737408 26.6976 0.685761 26.4629 0.634114C26.3847 0.60829 26.2805 0.60829 26.2022 0.582466C26.124 0.556643 26.0197 0.556643 25.9415 0.530819C25.8893 0.530819 25.8633 0.530819 25.8111 0.504995C25.759 0.504995 25.7068 0.479172 25.6547 0.479172C25.3939 0.453348 25.1333 0.401701 24.8725 0.375878C24.3772 0.32423 23.8557 0.298407 23.3604 0.272583C23.0735 0.298407 22.7868 0.298407 22.5 0.298407C22.0308 0.298407 21.5353 0.32423 21.0661 0.350054C21.0139 0.350054 20.9618 0.350054 20.9096 0.350054C20.3881 0.375878 19.8667 0.427524 19.3453 0.504995C19.241 0.530819 19.1628 0.530819 19.0585 0.556643L0.260719 19.1755Z" fill="#2094F3"/>
<path d="M44.7393 25.9671V25.9412C44.7393 25.9155 44.7393 25.8896 44.7654 25.8379V25.8122C44.7654 25.7605 44.7915 25.7346 44.7915 25.683V25.6572V25.6313C44.7915 25.6056 44.7915 25.6056 44.7915 25.6056L44.8176 25.4765L44.8436 25.3732C44.8436 25.2699 44.8697 25.1924 44.8697 25.1149C44.8697 25.0374 44.8958 24.96 44.8958 24.8825C44.8958 24.805 44.9219 24.7534 44.9219 24.7017V24.6501C44.9219 24.5984 44.9219 24.5727 44.9219 24.521V24.4951V24.4694C44.9219 24.4177 44.9219 24.3661 44.9478 24.2885V24.2628C44.9478 24.1852 44.9739 24.1078 44.9739 24.0045C44.9739 23.927 44.9739 23.8237 45 23.7463V23.7204V23.6946V23.6687C45 23.5913 45 23.5139 45 23.4622C45 23.3589 45 23.2814 45 23.1781V23.1265C45 23.049 45 22.9974 45 22.9199V22.7649C45 22.7134 45 22.6616 45 22.5842C45 22.5325 45 22.4551 45 22.4035V22.3518C44.9478 18.1167 43.2272 14.1399 40.1767 11.1702C37.1263 8.20043 33.0852 6.54773 28.7834 6.54773C27.7926 6.54773 26.8019 6.62519 25.8633 6.80597C28.0794 8.12297 30.0087 9.90479 31.5209 12.0482C33.7109 15.147 34.8581 18.7882 34.8581 22.6101C34.8581 26.4061 33.7109 30.0473 31.5209 33.1719C29.383 36.1932 26.4108 38.5174 22.9433 39.8344C20.8053 40.6608 18.5371 41.0739 16.2167 41.0739C12.8274 41.0739 9.56839 40.17 6.72656 38.5174H6.75263C6.77871 38.5432 6.77871 38.5432 6.80477 38.569L6.85692 38.6206C6.88299 38.6465 6.93514 38.6982 6.9612 38.724C7.01335 38.7756 7.09157 38.8531 7.16978 38.9048C7.22192 38.9563 7.27407 38.9822 7.30014 39.0339C7.37835 39.1114 7.45658 39.1888 7.56086 39.2662C7.61301 39.3179 7.66515 39.3695 7.71729 39.4212L7.74336 39.4471L7.89979 39.5761L7.92586 39.602C7.978 39.6278 8.00408 39.6794 8.05622 39.7053L8.08229 39.7311L8.10837 39.757C8.13443 39.7827 8.18658 39.8344 8.23872 39.8602H8.2648H8.29086C8.31694 39.886 8.36909 39.9119 8.39515 39.9377C8.52552 40.041 8.6298 40.1184 8.76016 40.2217C8.78624 40.2476 8.8123 40.2733 8.83838 40.2733C8.86445 40.2992 8.89052 40.325 8.94267 40.3509C8.96873 40.3767 8.96873 40.3766 8.99481 40.3766L9.02088 40.4025C9.07302 40.4283 9.12516 40.4799 9.17731 40.5058L9.22945 40.5316C9.25553 40.5575 9.2816 40.5575 9.30767 40.5832C9.33374 40.6091 9.38588 40.6349 9.41196 40.6608L9.4641 40.6865C9.56839 40.7641 9.6466 40.8157 9.75089 40.8931C9.80303 40.9189 9.82911 40.9448 9.88125 40.9706L9.90732 40.9964L10.0116 41.0739L10.1159 41.1514C10.168 41.1772 10.2202 41.2288 10.2984 41.2547C10.3505 41.2805 10.4288 41.3321 10.4809 41.358H10.6895L10.9502 41.5904C10.9763 41.6162 11.0284 41.642 11.0806 41.6679C11.1588 41.7195 11.237 41.7712 11.3152 41.797C11.3674 41.8227 11.4456 41.8745 11.4977 41.9003C11.8366 42.081 12.1756 42.2618 12.5145 42.4168C12.5927 42.4425 12.6709 42.4942 12.7491 42.5201C12.7491 42.5201 12.7752 42.5201 12.7752 42.5458C12.8534 42.5717 12.9056 42.6234 12.9838 42.6491C13.1924 42.7524 13.4009 42.8557 13.6356 42.9333C13.6877 42.959 13.7399 42.9848 13.792 43.0107C13.8181 43.0107 13.8181 43.0365 13.8442 43.0365C13.9224 43.0623 13.9746 43.0881 14.0528 43.114C14.2352 43.1914 14.4177 43.2431 14.6003 43.3206C14.6524 43.3464 14.7306 43.3722 14.7828 43.398C15.0695 43.5013 15.3563 43.6046 15.6171 43.682C15.6692 43.7079 15.7214 43.7079 15.7734 43.7338C15.8517 43.7596 15.9299 43.7853 16.0342 43.8112L16.1124 43.8371C16.2167 43.8629 16.321 43.8886 16.3992 43.9145C16.4514 43.9403 16.5035 43.9403 16.5557 43.9662C17.1814 44.1211 17.8071 44.2761 18.4328 44.3794C18.511 44.4051 18.5892 44.4051 18.6935 44.431C18.7978 44.4568 18.8761 44.4568 18.9543 44.4827C19.0325 44.5084 19.1367 44.5084 19.2149 44.5084C20.2578 44.6634 21.3007 44.715 22.3697 44.715C23.4125 44.715 24.4815 44.6376 25.5244 44.5084H25.5505C25.6287 44.5084 25.7069 44.4827 25.8111 44.4827L44.609 25.8638C44.7393 25.9671 44.7393 25.9671 44.7393 25.9671Z" fill="#222222"/>
</g>
</g>
<defs>
<clipPath id="clip0_160_219">
<rect width="45" height="44.5716" fill="white" transform="translate(0 0.298401)"/>
</clipPath>
</defs>
</svg>
