<svg viewBox="0 0 10 17.2142" xmlns="http://www.w3.org/2000/svg" xmlns:xlink="http://www.w3.org/1999/xlink" width="10.000000" height="17.214233" fill="none" customFrame="#000000">
	<g id="Group">
		<path id="Vector" d="M8.8373 0L1.1627 0C0.523313 0 4.36838e-16 0.522821 4.36838e-16 1.1627L4.36838e-16 16.0511C0 16.6909 0.523313 17.2142 1.1627 17.2142L8.8373 17.2142C9.47669 17.2142 10 16.6919 10 16.0515L10 1.1627C10 0.522821 9.47669 0 8.8373 0ZM3.77238 0.838088L6.22762 0.838088C6.30533 0.838088 6.36829 0.901043 6.36829 0.979245C6.36829 1.05695 6.30533 1.11991 6.22762 1.11991L3.77238 1.11991C3.69467 1.11991 3.63171 1.05695 3.63171 0.979245C3.63171 0.901043 3.69467 0.838088 3.77238 0.838088ZM5 16.6329C4.67883 16.6329 4.41865 16.3727 4.41865 16.0511C4.41865 15.7294 4.67883 15.4697 5 15.4697C5.32117 15.4697 5.58135 15.7294 5.58135 16.0511C5.58135 16.3727 5.32117 16.6329 5 16.6329ZM9.19093 15.0625L0.809069 15.0625L0.809069 1.84389L9.19093 1.84389L9.19093 15.0625Z" fill="#2094F3" fill-rule="nonzero" />
	</g>
</svg>
