<svg width="47" height="47" viewBox="0 0 47 47" fill="none" xmlns="http://www.w3.org/2000/svg">
<g clip-path="url(#clip0_182_76)">
<path fill-rule="evenodd" clip-rule="evenodd" d="M22.5389 47C11.9104 47 6.56953 47 3.25817 43.694C-0.0478516 40.388 -0.0478515 35.0951 -0.0478515 24.4133L-0.0478516 22.5333C-0.047852 11.9049 -0.0478523 6.56398 3.25817 3.25262C6.56419 -0.0534055 11.857 -0.0534057 22.5389 -0.0534057L24.4189 -0.0534058C35.0473 -0.0534062 40.3882 -0.0534065 43.6996 3.25262C47.0056 6.55864 47.0056 11.8515 47.0056 22.5333V24.4133C47.0056 35.0417 47.0056 40.3826 43.6996 43.694C40.3936 47.0053 35.1007 47 24.4189 47H22.5389Z" fill="#0077FF"/>
<path d="M27.3457 8.59886C26.1173 8.58679 25.0491 9.57625 25.0491 10.8688V13.63L19.2809 12.1933C19.1015 12.1485 18.9225 12.126 18.7468 12.1244C17.5184 12.1123 16.4502 13.1018 16.4502 14.3943V17.1449L10.7355 15.7188C9.29876 15.361 7.90479 16.4452 7.90479 17.9193V33.2477C7.90479 34.5509 8.79138 35.6831 10.0572 35.9983L19.1901 38.2735C20.6268 38.6313 22.0208 37.5471 22.0208 36.073V20.7446C22.0208 19.81 21.5631 18.9661 20.8405 18.448C20.8289 18.4103 20.8315 18.3685 20.855 18.3343C20.8951 18.2761 20.9672 18.2483 21.0345 18.2686C22.2362 18.6318 23.3792 19.8602 23.4967 21.409L23.893 33.1056C23.9032 33.4976 24.1648 33.832 24.5339 33.9548L27.7384 34.7506C29.1751 35.1085 30.5691 34.0243 30.5691 32.5502C30.6069 27.4923 30.596 22.349 30.5973 17.2752C30.5973 16.5862 30.3644 16.0574 30.1027 15.6729C30.0603 15.6088 30.0157 15.5458 29.9681 15.4849C29.911 15.4123 29.8485 15.3434 29.7844 15.2761C29.6888 15.1757 29.5868 15.0801 29.4768 14.9946L29.4747 14.9925C29.4294 14.947 29.4165 14.8761 29.4538 14.8227C29.4939 14.7645 29.566 14.7367 29.6333 14.757C30.835 15.1202 31.9833 16.3486 32.0954 17.8974L32.4917 29.594C32.5019 29.9828 32.7609 30.3151 33.1273 30.4326L36.3372 31.2337C37.7739 31.5915 39.1679 30.5073 39.1679 29.0332V13.7048C39.1679 12.4016 38.2813 11.2694 37.0155 10.9543L27.8825 8.67903C27.7031 8.63427 27.5241 8.61174 27.3484 8.61013L27.3457 8.59886Z" fill="white"/>
</g>
<defs>
<clipPath id="clip0_182_76">
<rect width="47" height="47" fill="white"/>
</clipPath>
</defs>
</svg>
